<svg width="32" height="32" viewBox="0 0 32 32" fill="none" xmlns="http://www.w3.org/2000/svg">
<rect width="32" height="31.4483" rx="8.82759" fill="#7C3BED" fill-opacity="0.2"/>
<path d="M7.39311 7.44835H12.6897C13.0408 7.44835 13.3776 7.58786 13.626 7.83618C13.8743 8.0845 14.0138 8.4213 14.0138 8.77249V14.069C14.0138 14.4202 13.8743 14.757 13.626 15.0053C13.3776 15.2537 13.0408 15.3932 12.6897 15.3932H7.39311C7.04192 15.3932 6.70512 15.2537 6.4568 15.0053C6.20848 14.757 6.06897 14.4202 6.06897 14.069V8.77249C6.06897 8.4213 6.20848 8.0845 6.4568 7.83618C6.70512 7.58786 7.04192 7.44835 7.39311 7.44835ZM13.557 18.8293C13.7429 19.0155 13.8474 19.2679 13.8474 19.5311C13.8474 19.7943 13.7429 20.0467 13.557 20.2329L10.0811 23.7088C9.8949 23.8947 9.64249 23.9992 9.37931 23.9992C9.11614 23.9992 8.86373 23.8947 8.67752 23.7088L6.69131 21.7226C6.56059 21.6012 6.46502 21.4468 6.41469 21.2756C6.36435 21.1045 6.36111 20.9229 6.4053 20.7501C6.44949 20.5773 6.53948 20.4196 6.66579 20.2936C6.79209 20.1676 6.95004 20.078 7.12298 20.0343C7.29563 19.9902 7.47696 19.9933 7.64796 20.0434C7.81896 20.0935 7.97334 20.1887 8.0949 20.319L9.37931 21.6034L12.1534 18.8293C12.3396 18.6433 12.592 18.5389 12.8552 18.5389C13.1183 18.5389 13.3708 18.6433 13.557 18.8293ZM17.6552 8.11042H24.9379C25.2013 8.11042 25.4539 8.21505 25.6402 8.40129C25.8264 8.58753 25.931 8.84013 25.931 9.10352C25.931 9.36691 25.8264 9.61951 25.6402 9.80575C25.4539 9.99199 25.2013 10.0966 24.9379 10.0966H17.6552C17.3918 10.0966 17.1392 9.99199 16.9529 9.80575C16.7667 9.61951 16.6621 9.36691 16.6621 9.10352C16.6621 8.84013 16.7667 8.58753 16.9529 8.40129C17.1392 8.21505 17.3918 8.11042 17.6552 8.11042ZM17.6552 14.7311H24.9379C25.2013 14.7311 25.4539 14.8357 25.6402 15.022C25.8264 15.2082 25.931 15.4608 25.931 15.7242C25.931 15.9876 25.8264 16.2402 25.6402 16.4264C25.4539 16.6127 25.2013 16.7173 24.9379 16.7173H17.6552C17.3918 16.7173 17.1392 16.6127 16.9529 16.4264C16.7667 16.2402 16.6621 15.9876 16.6621 15.7242C16.6621 15.4608 16.7667 15.2082 16.9529 15.022C17.1392 14.8357 17.3918 14.7311 17.6552 14.7311ZM17.6552 21.3518H24.9379C25.2013 21.3518 25.4539 21.4564 25.6402 21.6427C25.8264 21.8289 25.931 22.0815 25.931 22.3449C25.931 22.6083 25.8264 22.8609 25.6402 23.0471C25.4539 23.2334 25.2013 23.338 24.9379 23.338H17.6552C17.3918 23.338 17.1392 23.2334 16.9529 23.0471C16.7667 22.8609 16.6621 22.6083 16.6621 22.3449C16.6621 22.0815 16.7667 21.8289 16.9529 21.6427C17.1392 21.4564 17.3918 21.3518 17.6552 21.3518ZM8.05518 9.43456V13.407H12.0276V9.43456H8.05518Z" fill="#7C3BED"/>
</svg>
