<svg width="64" height="63" viewBox="0 0 64 63" fill="none" xmlns="http://www.w3.org/2000/svg">
<rect width="64" height="62.8966" rx="17.6552" fill="#7C3BED" fill-opacity="0.2"/>
<path d="M14.7862 14.8967H25.3793C26.0816 14.8967 26.7552 15.1757 27.2519 15.6724C27.7485 16.169 28.0275 16.8426 28.0275 17.545V28.1381C28.0275 28.8405 27.7485 29.5141 27.2519 30.0107C26.7552 30.5073 26.0816 30.7864 25.3793 30.7864H14.7862C14.0838 30.7864 13.4102 30.5073 12.9135 30.0107C12.4169 29.5141 12.1379 28.8405 12.1379 28.1381V17.545C12.1379 16.8426 12.4169 16.169 12.9135 15.6724C13.4102 15.1757 14.0838 14.8967 14.7862 14.8967ZM27.1139 37.6586C27.4858 38.0311 27.6948 38.5359 27.6948 39.0622C27.6948 39.5886 27.4858 40.0934 27.1139 40.4658L20.1622 47.4175C19.7897 47.7895 19.2849 47.9984 18.7586 47.9984C18.2322 47.9984 17.7274 47.7895 17.355 47.4175L13.3826 43.4451C13.1211 43.2023 12.93 42.8935 12.8293 42.5513C12.7286 42.209 12.7222 41.8459 12.8105 41.5002C12.8989 41.1545 13.0789 40.8391 13.3315 40.5872C13.5841 40.3352 13.9 40.1561 14.2459 40.0686C14.5912 39.9804 14.9539 39.9867 15.2959 40.0869C15.6379 40.187 15.9466 40.3774 16.1897 40.6379L18.7586 43.2068L24.3067 37.6586C24.6791 37.2867 25.1839 37.0778 25.7103 37.0778C26.2366 37.0778 26.7415 37.2867 27.1139 37.6586ZM35.3103 16.2208H49.8758C50.4026 16.2208 50.9078 16.4301 51.2803 16.8026C51.6528 17.1751 51.862 17.6803 51.862 18.2071C51.862 18.7338 51.6528 19.239 51.2803 19.6115C50.9078 19.984 50.4026 20.1933 49.8758 20.1933H35.3103C34.7835 20.1933 34.2783 19.984 33.9058 19.6115C33.5333 19.239 33.3241 18.7338 33.3241 18.2071C33.3241 17.6803 33.5333 17.1751 33.9058 16.8026C34.2783 16.4301 34.7835 16.2208 35.3103 16.2208ZM35.3103 29.4622H49.8758C50.4026 29.4622 50.9078 29.6715 51.2803 30.044C51.6528 30.4165 51.862 30.9217 51.862 31.4484C51.862 31.9752 51.6528 32.4804 51.2803 32.8529C50.9078 33.2254 50.4026 33.4346 49.8758 33.4346H35.3103C34.7835 33.4346 34.2783 33.2254 33.9058 32.8529C33.5333 32.4804 33.3241 31.9752 33.3241 31.4484C33.3241 30.9217 33.5333 30.4165 33.9058 30.044C34.2783 29.6715 34.7835 29.4622 35.3103 29.4622ZM35.3103 42.7036H49.8758C50.4026 42.7036 50.9078 42.9129 51.2803 43.2853C51.6528 43.6578 51.862 44.163 51.862 44.6898C51.862 45.2166 51.6528 45.7218 51.2803 46.0943C50.9078 46.4668 50.4026 46.676 49.8758 46.676H35.3103C34.7835 46.676 34.2783 46.4668 33.9058 46.0943C33.5333 45.7218 33.3241 45.2166 33.3241 44.6898C33.3241 44.163 33.5333 43.6578 33.9058 43.2853C34.2783 42.9129 34.7835 42.7036 35.3103 42.7036ZM16.1103 18.8691V26.8139H24.0551V18.8691H16.1103Z" fill="#7C3BED"/>
</svg>
